<svg width="50" height="47" viewBox="0 0 50 47" fill="none" xmlns="http://www.w3.org/2000/svg">
<path d="M22.9802 46.9897C22.758 46.9602 22.5847 46.8081 22.4757 46.5472C22.4225 46.4198 22.4109 46.3331 22.4115 46.0671C22.4118 45.8886 22.4267 45.6885 22.4446 45.6225C22.4624 45.5565 22.4896 45.4079 22.505 45.2924C22.5204 45.1769 22.5596 44.9337 22.5923 44.7523C22.6248 44.5708 22.6515 44.3614 22.6515 44.2871C22.6515 44.2128 22.6716 44.0778 22.6961 43.987C22.7207 43.8963 22.7535 43.6798 22.7691 43.5059C22.7847 43.3321 22.8142 43.1498 22.8348 43.1008C22.86 43.0411 22.8759 42.7801 22.8831 42.3066C22.8921 41.7246 22.8855 41.5726 22.8458 41.4363C22.8194 41.3456 22.7905 41.2375 22.782 41.1962C22.7273 40.9322 22.4036 40.5416 22.1047 40.3786C21.7535 40.1872 21.4075 40.0259 21.3479 40.0259C21.3254 40.0259 21.2481 39.9992 21.1762 39.9665C21.1042 39.9339 21.0048 39.9068 20.9554 39.9064C20.9059 39.9059 20.8254 39.8846 20.7764 39.8592C20.7274 39.8336 20.5924 39.8006 20.4763 39.7858C20.3602 39.7711 20.1774 39.7382 20.0701 39.7129C19.9628 39.6874 19.8075 39.6662 19.725 39.6656C19.6425 39.665 19.4746 39.6377 19.3519 39.6051C19.2293 39.5724 19.0791 39.5458 19.0181 39.5458C18.9571 39.5458 18.851 39.5259 18.7821 39.5016C18.7134 39.4774 18.5867 39.4489 18.5008 39.4386C18.4148 39.4281 18.2588 39.3941 18.1539 39.3626C18.049 39.3314 17.927 39.3057 17.8828 39.3057C17.8385 39.3057 17.7256 39.2787 17.6316 39.2457C17.5377 39.2127 17.4166 39.1856 17.3626 39.1854C17.3086 39.1854 17.2258 39.1652 17.1786 39.1407C17.1315 39.1161 17.012 39.0829 16.9131 39.067C16.8142 39.051 16.7162 39.024 16.6956 39.0068C16.6749 38.9898 16.592 38.9667 16.5111 38.9559C16.4302 38.945 16.3055 38.9113 16.2341 38.8809C16.1625 38.8504 16.0748 38.8251 16.039 38.8245C16.0032 38.824 15.9199 38.7975 15.8539 38.7656C15.7879 38.7336 15.7028 38.7071 15.6649 38.7066C15.6269 38.706 15.5574 38.6856 15.5105 38.6614C15.4636 38.6371 15.3731 38.604 15.3094 38.5878C15.1643 38.5509 14.8636 38.4462 14.739 38.3889C14.6871 38.365 14.6195 38.345 14.589 38.3444C14.5585 38.3439 14.4795 38.3174 14.4135 38.2854C14.3475 38.2535 14.2732 38.227 14.2485 38.2262C14.2237 38.2256 14.1593 38.1983 14.1051 38.1653C14.0511 38.1323 13.9874 38.1054 13.9635 38.1054C13.9217 38.1054 13.7677 38.0427 13.5132 37.9221C13.4472 37.8908 13.3751 37.8652 13.3528 37.8652C13.3306 37.8653 13.2767 37.846 13.2327 37.8223C13.0844 37.7423 12.812 37.6252 12.7724 37.6246C12.7508 37.6242 12.6993 37.5975 12.658 37.5652C12.6167 37.5329 12.5638 37.5063 12.5403 37.5058C12.496 37.5052 11.2649 36.8956 11.0526 36.7693C10.9865 36.73 10.9122 36.6895 10.8875 36.6793C10.8628 36.669 10.8222 36.648 10.7975 36.6326C10.7517 36.6041 10.6688 36.5643 10.5874 36.5318C10.5627 36.522 10.4817 36.474 10.4074 36.425C10.3331 36.3762 10.2447 36.3237 10.2111 36.3086C10.1774 36.2935 10.1318 36.2595 10.1099 36.233C10.088 36.2064 10.05 36.1848 10.0258 36.1848C10.0015 36.1848 9.9474 36.1578 9.90539 36.1248C9.86349 36.0918 9.81404 36.064 9.79568 36.0628C9.77719 36.0617 9.70145 36.0145 9.62715 35.958C9.55285 35.9013 9.45982 35.8411 9.42021 35.8239C9.38072 35.8068 9.29838 35.7532 9.23704 35.7047C9.17582 35.6562 9.09336 35.6028 9.05387 35.5861C9.01425 35.5694 8.86037 35.4679 8.71189 35.3606C8.56341 35.2531 8.36751 35.1147 8.27677 35.0529C8.18602 34.9911 7.9648 34.8256 7.78535 34.685C7.60602 34.5443 7.39476 34.382 7.31614 34.3243C6.66759 33.8479 5.2878 32.5323 4.52799 31.6657C4.41371 31.5352 3.64718 30.5752 3.461 30.3291C3.29584 30.1108 3.20533 29.9749 3.20533 29.9453C3.20533 29.9317 3.18625 29.9045 3.16284 29.8851C3.13943 29.8658 3.05649 29.7527 2.97835 29.6339C2.90033 29.5151 2.81138 29.3813 2.78077 29.3367C2.75028 29.2919 2.7252 29.2484 2.7252 29.24C2.7252 29.2266 2.5826 29.0051 2.42031 28.7665C2.38994 28.7217 2.3651 28.6651 2.3651 28.6407C2.3651 28.6162 2.35021 28.587 2.33209 28.5758C2.31384 28.5645 2.27915 28.5131 2.2549 28.4615C2.23066 28.4099 2.17916 28.3136 2.14039 28.2476C1.99923 28.0076 1.4047 26.7921 1.40494 26.7439C1.40494 26.7292 1.37602 26.6564 1.34049 26.5821C1.30508 26.5078 1.25274 26.3931 1.22417 26.327C1.17616 26.2163 1.15311 26.1542 1.06813 25.9069C1.05108 25.8574 1.01183 25.7592 0.980864 25.6886C0.950015 25.618 0.924688 25.539 0.924688 25.5131C0.924688 25.487 0.904522 25.4233 0.879915 25.3713C0.837063 25.2808 0.79097 25.1349 0.712828 24.8416C0.693143 24.7673 0.651611 24.6407 0.620762 24.56C0.589913 24.4795 0.564827 24.3849 0.565067 24.35C0.565187 24.315 0.539619 24.1987 0.50805 24.0914C0.419585 23.7913 0.322838 23.3648 0.323678 23.2793C0.324158 23.237 0.299071 23.102 0.267862 22.9792C0.236534 22.8565 0.202804 22.6476 0.192601 22.5152C0.182518 22.383 0.159712 22.2276 0.142067 22.1702C0.124422 22.1128 0.0983746 21.8768 0.0843306 21.6457C0.0702866 21.4147 0.0423185 20.972 0.0221528 20.662C-0.0148176 20.0926 -0.0125369 20.0137 0.0836103 18.4629C0.0990947 18.2143 0.125622 17.9744 0.142547 17.9298C0.159472 17.8852 0.18732 17.7105 0.204365 17.5416C0.221409 17.3726 0.255379 17.1607 0.279986 17.0704C0.304473 16.9801 0.324518 16.8705 0.324518 16.8267C0.324518 16.7829 0.351526 16.6626 0.384535 16.5593C0.417545 16.4559 0.444552 16.3264 0.444552 16.2714C0.444552 16.2163 0.47156 16.1029 0.504569 16.0191C0.537579 15.9353 0.564586 15.8351 0.564586 15.7962C0.564586 15.7573 0.591234 15.6667 0.624003 15.5948C0.656652 15.5228 0.68366 15.4234 0.68414 15.3739C0.68462 15.3245 0.704666 15.2462 0.728673 15.2001C0.7528 15.154 0.781608 15.0663 0.792891 15.0051C0.804174 14.9439 0.838504 14.8468 0.869112 14.7893C0.899601 14.7316 0.925168 14.6575 0.925648 14.6242C0.926248 14.591 0.952776 14.5097 0.984705 14.4437C1.01663 14.3777 1.04328 14.2966 1.04388 14.2636C1.0446 14.2306 1.07197 14.163 1.10474 14.1136C1.13751 14.0641 1.1644 13.9992 1.16452 13.9694C1.16464 13.9398 1.19056 13.8655 1.22213 13.8044C1.25358 13.7434 1.30904 13.6192 1.34529 13.5284C1.38142 13.4377 1.42835 13.3228 1.44936 13.2734C1.49941 13.1562 1.88316 12.3565 1.91749 12.2981C1.93201 12.2734 1.97811 12.1836 2.02012 12.0987C2.06201 12.0138 2.12647 11.8991 2.1632 11.8436C2.20005 11.7882 2.26847 11.6686 2.31516 11.5779C2.36197 11.4871 2.4394 11.3521 2.48717 11.2778C2.53506 11.2035 2.5832 11.1225 2.59424 11.0977C2.60528 11.073 2.63469 11.029 2.65954 11C2.68451 10.971 2.71956 10.9222 2.73756 10.8915C2.96298 10.5069 2.92901 10.5582 3.40411 9.88516C3.57324 9.64569 4.31349 8.71062 4.43484 8.58327C4.47097 8.54546 4.56976 8.43059 4.65462 8.3282C4.97883 7.93629 6.25383 6.67833 6.65283 6.3564C6.72437 6.29866 6.83888 6.20096 6.90718 6.13926C7.12 5.9472 7.97812 5.27021 8.22179 5.10204C8.27677 5.06411 8.45886 4.9334 8.62631 4.8118C8.79375 4.69009 8.96936 4.56885 9.01642 4.54233C9.0984 4.49611 9.15253 4.46154 9.34507 4.33263C9.41721 4.28425 9.67732 4.11837 9.97225 3.93231C10.0053 3.91155 10.0728 3.87362 10.1223 3.84805C10.1717 3.82248 10.2663 3.76931 10.3323 3.7297C10.3984 3.6902 10.4997 3.62983 10.5574 3.59562C10.6151 3.56141 10.7165 3.50079 10.7825 3.46082C10.8485 3.42109 10.9228 3.37992 10.9475 3.36959C11.0732 3.31678 11.1225 3.29181 11.2626 3.20983C11.2956 3.1905 11.3766 3.14813 11.4427 3.11548C11.5603 3.05739 11.5911 3.04082 11.7127 2.96988C11.7457 2.95068 11.8065 2.92007 11.8478 2.90182C11.8891 2.88358 12.0375 2.81444 12.1779 2.7483C12.5554 2.57017 12.5812 2.55757 12.7689 2.46046C12.8383 2.42457 12.911 2.39528 12.9307 2.39528C12.9679 2.39528 13.1621 2.31138 13.3541 2.21247C13.4152 2.18102 13.4868 2.15521 13.5132 2.15521C13.5397 2.15521 13.6113 2.12832 13.6724 2.09555C13.8489 2.00073 14.0605 1.91514 14.1193 1.9149C14.1491 1.91478 14.214 1.8879 14.2635 1.85513C14.3129 1.82236 14.3872 1.79535 14.4285 1.79511C14.4698 1.79487 14.5441 1.76786 14.5936 1.73509C14.643 1.70232 14.7078 1.67544 14.7372 1.67532C14.7669 1.6752 14.8439 1.64807 14.9086 1.61506C14.9733 1.58205 15.0574 1.55504 15.0954 1.55504C15.1335 1.55504 15.215 1.52803 15.2765 1.49502C15.3381 1.46202 15.4189 1.43453 15.4561 1.43405C15.4933 1.43345 15.5778 1.40692 15.6438 1.37499C15.7099 1.34306 15.7909 1.31605 15.8239 1.31497C15.8569 1.31389 15.9379 1.28689 16.004 1.25496C16.07 1.22303 16.1646 1.19626 16.214 1.1953C16.2635 1.19434 16.3629 1.16685 16.4349 1.13432C16.5068 1.10155 16.5975 1.07491 16.6363 1.07491C16.6751 1.07491 16.7783 1.0491 16.8656 1.01765C16.9528 0.986201 17.0783 0.951271 17.1443 0.939988C17.2103 0.928704 17.2788 0.907459 17.2966 0.892815C17.3144 0.87817 17.4264 0.852243 17.5453 0.835438C17.6643 0.818513 17.81 0.784544 17.8693 0.759817C17.9285 0.73509 18.0139 0.714804 18.0594 0.714804C18.1048 0.714804 18.2011 0.693198 18.2733 0.66679C18.3456 0.640383 18.5076 0.607734 18.6337 0.59417C18.7597 0.580606 18.9255 0.548197 19.0023 0.522149C19.0791 0.496102 19.1858 0.474736 19.2393 0.474736C19.293 0.474736 19.4106 0.45457 19.5009 0.429963C19.5912 0.405356 19.8177 0.370907 20.0043 0.353502C20.1909 0.336217 20.3799 0.307769 20.4244 0.290364C20.4689 0.272959 20.647 0.247272 20.8203 0.233348C20.9936 0.219304 21.2772 0.187495 21.4505 0.162648C21.6238 0.137801 22.0154 0.102631 22.3207 0.0845059C22.6261 0.0663808 22.9974 0.0396133 23.146 0.0252092C23.4865 -0.0080402 25.5758 -0.0085204 25.9368 0.0244889C26.0854 0.0380528 26.4633 0.06458 26.777 0.0833053C27.0906 0.102151 27.4889 0.138401 27.6622 0.163848C27.8356 0.189415 28.1327 0.222305 28.3224 0.237069C28.5122 0.251833 28.7486 0.284122 28.8476 0.308849C28.9466 0.333576 29.0884 0.354102 29.1627 0.354582C29.237 0.355062 29.4057 0.38207 29.5378 0.414719C29.6698 0.447368 29.826 0.474136 29.8849 0.474376C29.9439 0.474616 30.0653 0.496822 30.155 0.52383C30.2447 0.550717 30.399 0.582767 30.498 0.59477C30.6584 0.614336 30.8004 0.644944 31.2183 0.749614C31.2843 0.766179 31.426 0.796907 31.5333 0.817913C31.6407 0.838799 31.796 0.87721 31.8784 0.903377C31.9609 0.929425 32.0859 0.965195 32.1561 0.98284C32.4613 1.05966 32.5488 1.08367 32.7187 1.13804C32.8177 1.16973 32.9188 1.19542 32.9431 1.19518C32.9676 1.19506 33.0554 1.22015 33.1382 1.25112C33.3808 1.3415 33.5814 1.40776 33.694 1.43501C33.8351 1.4691 34.0717 1.55168 34.2223 1.6195C34.2902 1.65011 34.3675 1.67508 34.3941 1.67508C34.4208 1.67508 34.5003 1.7004 34.5709 1.73137C34.6415 1.76222 34.7465 1.80399 34.8043 1.82416C34.862 1.8442 34.9769 1.8879 35.0593 1.92103C35.1418 1.95427 35.2634 2.00073 35.3294 2.02425C35.4466 2.06615 35.4822 2.08139 35.7678 2.21199C35.8439 2.2468 35.9223 2.27525 35.9419 2.27525C35.9616 2.27525 36.0277 2.30105 36.0886 2.33262C36.1964 2.3882 36.4766 2.51963 36.8148 2.67328C37.0388 2.77495 37.6371 3.07239 37.7751 3.15065C37.7998 3.1647 37.8741 3.20263 37.9402 3.23492C38.0062 3.26709 38.1548 3.34811 38.2702 3.41473C38.3857 3.48147 38.5208 3.55709 38.5703 3.58289C38.8334 3.71985 39.6568 4.224 39.6976 4.27309C39.717 4.29662 39.7453 4.31582 39.7606 4.31582C39.7757 4.31582 39.8247 4.34067 39.8695 4.37116C39.9141 4.40165 40.0115 4.46526 40.0858 4.51268C40.1601 4.56009 40.2742 4.63979 40.3394 4.68997C40.4046 4.74002 40.4808 4.7944 40.5088 4.81096C40.6325 4.88394 40.8937 5.07204 40.9268 5.11213C40.947 5.13625 40.9755 5.15606 40.9903 5.15606C41.0131 5.15606 41.7001 5.69057 42.0796 6.00362C42.3148 6.19771 42.9565 6.76463 43.1742 6.97085C43.7157 7.48352 44.8529 8.70594 45.0033 8.93713C45.0302 8.97842 45.1382 9.11922 45.2435 9.25018C45.4129 9.46072 45.7383 9.89536 45.8854 10.1075C46.0256 10.3095 46.2242 10.606 46.2375 10.6333C46.2458 10.6501 46.2999 10.7379 46.3579 10.8284C46.4159 10.9188 46.4766 11.0143 46.4929 11.0407C46.5093 11.0671 46.5596 11.1442 46.6046 11.2119C46.6498 11.2797 46.7308 11.4164 46.7846 11.5158C46.8385 11.6152 46.9129 11.7475 46.9498 11.8098C46.9866 11.8721 47.0439 11.977 47.0769 12.043C47.11 12.109 47.1496 12.1833 47.165 12.2081C47.2428 12.3329 47.6781 13.2495 47.6781 13.2884C47.6783 13.3131 47.7052 13.3739 47.7379 13.4234C47.7707 13.4729 47.7976 13.5321 47.7977 13.5551C47.7979 13.5976 47.8773 13.7837 47.9809 13.9844C48.0123 14.0455 48.038 14.1178 48.038 14.145C48.038 14.1723 48.0576 14.2371 48.0815 14.2891C48.1368 14.4097 48.2429 14.7121 48.2784 14.8507C48.2936 14.9095 48.3266 14.9974 48.3518 15.0458C48.3771 15.0943 48.3979 15.1609 48.3979 15.1939C48.398 15.2269 48.424 15.3349 48.4558 15.434C48.5495 15.7259 48.6321 16.0236 48.6639 16.1842C48.6801 16.2666 48.7071 16.3882 48.7235 16.4543C48.8257 16.8626 48.8798 17.1278 48.8797 17.2195C48.8796 17.2772 48.8995 17.4122 48.924 17.5196C48.9485 17.6269 48.9821 17.8699 48.9988 18.0597C49.0153 18.2495 49.0504 18.5355 49.0765 18.6953C49.1415 19.0913 49.1189 21.427 49.0467 21.7808C49.0213 21.9045 49 22.0868 48.9991 22.1859C48.9983 22.2849 48.9709 22.474 48.9383 22.606C48.9056 22.738 48.8791 22.8866 48.8794 22.9361C48.8797 23.0145 48.8282 23.2632 48.724 23.6863C48.7077 23.7523 48.681 23.8671 48.6647 23.9414C48.6307 24.0949 48.5409 24.4114 48.4558 24.6766C48.424 24.7756 48.3981 24.8809 48.3981 24.9103C48.3981 24.9398 48.3711 25.017 48.3381 25.0817C48.3051 25.1464 48.2776 25.2236 48.277 25.2531C48.2765 25.2825 48.25 25.3608 48.2181 25.4268C48.1861 25.4928 48.1595 25.5738 48.1589 25.6068C48.1582 25.6399 48.1308 25.7073 48.098 25.7569C48.0653 25.8065 48.0384 25.8706 48.0382 25.8995C48.0381 25.9285 48.011 26.0026 47.978 26.0642C47.945 26.1257 47.918 26.1939 47.918 26.2157C47.918 26.2374 47.8926 26.3051 47.8617 26.3661C47.8069 26.4737 47.7257 26.6501 47.6168 26.8972C47.5304 27.0935 47.414 27.3258 47.2107 27.7074C47.1052 27.9055 46.9974 28.108 46.9713 28.1576C46.945 28.2071 46.8913 28.3016 46.8517 28.3676C46.8122 28.4336 46.752 28.5349 46.7179 28.5927C46.6838 28.6504 46.6296 28.7382 46.5976 28.7877C46.5656 28.8373 46.5085 28.9302 46.471 28.9943C46.4333 29.0585 46.3878 29.1361 46.3699 29.1667C46.3519 29.1974 46.3148 29.2472 46.2873 29.2775C46.2599 29.3078 46.2375 29.3412 46.2375 29.3517C46.2375 29.3622 46.1968 29.4286 46.1471 29.4994C46.0973 29.5701 45.9822 29.7379 45.8913 29.8725C45.8003 30.0069 45.706 30.1336 45.6816 30.1537C45.6573 30.1739 45.6373 30.2034 45.6373 30.2191C45.6373 30.235 45.5563 30.347 45.4573 30.4682C45.3582 30.5894 45.2772 30.6982 45.2772 30.7101C45.2772 30.722 45.2009 30.8186 45.1075 30.9249C45.0142 31.0312 44.9027 31.169 44.86 31.2311C44.6025 31.6042 43.3423 32.9914 42.4723 33.8592C41.8112 34.5185 40.6263 35.6302 40.3258 35.873C40.2681 35.9197 40.1128 36.0547 39.9807 36.1729C39.8487 36.2913 39.6326 36.4775 39.5006 36.5867C38.8511 37.1241 38.3562 37.5304 38.2353 37.6252C38.1617 37.683 37.9909 37.8233 37.8558 37.937C37.7206 38.0508 37.5763 38.1654 37.535 38.1919C37.4937 38.2184 37.2575 38.3984 37.0099 38.5919C36.7623 38.7854 36.5328 38.9643 36.4997 38.9895C35.8664 39.473 35.5406 39.7185 35.3089 39.8864C35.2211 39.9499 34.994 40.1149 34.8043 40.253C34.6145 40.3911 34.3916 40.5526 34.3091 40.6119C33.4202 41.2515 33.0859 41.4879 32.9316 41.5864C32.7544 41.6994 32.4982 41.8761 32.39 41.9598C32.3248 42.0102 32.248 42.0651 32.2193 42.0815C32.1906 42.0979 31.7452 42.3951 31.2295 42.7417C30.7137 43.0882 30.2773 43.377 30.2598 43.3833C30.2424 43.3895 30.2042 43.4154 30.1753 43.4406C30.1462 43.466 30.0975 43.5013 30.0668 43.5193C29.7568 43.7009 29.7694 43.6931 29.5348 43.8502C29.1827 44.0859 28.9563 44.2271 28.9304 44.2271C28.9136 44.2271 28.8819 44.2487 28.8599 44.2752C28.8381 44.3018 28.7925 44.3356 28.7588 44.3507C28.725 44.3657 28.603 44.4384 28.4875 44.5122C28.372 44.586 28.2436 44.6634 28.2023 44.6843C28.1609 44.7052 28.0528 44.7697 27.9622 44.8276C27.7668 44.9525 27.7401 44.9687 27.4672 45.1278C27.3517 45.1953 27.2167 45.2764 27.1671 45.3082C27.1175 45.3399 27.0337 45.3899 26.9807 45.4192C26.8135 45.5116 26.3288 45.7883 26.2819 45.8182C26.2571 45.8339 26.1896 45.8717 26.1318 45.9022C26.0741 45.9327 25.9255 46.0138 25.8017 46.0822C25.3978 46.3059 24.4792 46.7477 24.4176 46.7481C24.3949 46.7481 24.3366 46.7688 24.2882 46.7941C24.2397 46.8194 24.1384 46.8536 24.0631 46.87C23.9878 46.8865 23.8856 46.918 23.8362 46.9402C23.7347 46.9856 23.1873 47.0173 22.9802 46.9897ZM15.3738 26.572C15.9817 26.2844 16.2856 25.7491 16.1941 25.1267C16.1746 24.9947 16.1359 24.8529 16.1078 24.8116C16.0798 24.7703 16.0468 24.7045 16.0347 24.6653C15.9993 24.5514 15.6589 24.2332 15.4788 24.1455C15.3881 24.1014 15.2249 24.0508 15.1163 24.0333C14.9929 24.0134 14.2589 24.0014 13.1603 24.0014C11.6018 24.0014 11.3966 23.996 11.3548 23.9542C11.3123 23.9118 11.3076 23.4838 11.3076 19.6913C11.3076 15.3348 11.3026 15.1378 11.1869 14.9688C11.1585 14.9275 11.1261 14.8638 11.1147 14.8272C11.0761 14.7026 10.7546 14.4109 10.5395 14.305C10.3401 14.2069 10.322 14.2036 9.97285 14.2036C9.63219 14.2036 9.60218 14.2087 9.43209 14.2936C9.17654 14.4215 8.87814 14.7244 8.76074 14.9757L8.66688 15.1764L8.66712 20.4216C8.66736 25.6048 8.66796 25.6679 8.72689 25.7569C8.75966 25.8065 8.78655 25.8659 8.78667 25.8889C8.78715 25.9953 9.31494 26.5221 9.42093 26.5221C9.44446 26.5221 9.49715 26.5457 9.53796 26.5747C9.57986 26.6043 9.69713 26.6353 9.8072 26.6459C9.91451 26.6561 11.1703 26.6628 12.598 26.6609L15.1937 26.6571L15.3738 26.572ZM23.7173 26.5233C23.8435 26.458 23.981 26.3704 24.0229 26.3285C24.128 26.2235 24.3311 25.9481 24.3323 25.909C24.3329 25.8913 24.3594 25.8229 24.3913 25.7569C24.4475 25.6407 24.4493 25.5378 24.4504 22.5235C24.4509 20.7868 24.4629 19.4101 24.4774 19.4101C24.4917 19.4101 24.5411 19.4675 24.5873 19.5376C24.6335 19.6078 24.7704 19.7979 24.8914 19.9602C25.0125 20.1224 25.1115 20.2623 25.1115 20.2711C25.1115 20.2799 25.1635 20.3496 25.2271 20.4262C25.2907 20.5028 25.3481 20.5797 25.3547 20.5971C25.3612 20.6146 25.4379 20.7227 25.525 20.8372C25.7658 21.1539 26.0718 21.5745 26.0718 21.5888C26.0718 21.5959 26.1495 21.7015 26.2444 21.8237C26.3392 21.9459 26.4685 22.1179 26.5316 22.2059C26.5948 22.2939 26.7568 22.516 26.8917 22.6993C27.0267 22.8826 27.1911 23.1098 27.2571 23.2041C27.3232 23.2986 27.4312 23.4461 27.4972 23.5319C27.5632 23.6178 27.6308 23.7099 27.6472 23.7368C27.7021 23.826 28.3354 24.6935 28.465 24.8569C28.5351 24.9452 28.5925 25.0253 28.5925 25.0346C28.5925 25.0439 28.6514 25.1293 28.7235 25.2242C28.7955 25.3191 28.9899 25.5791 29.1556 25.8019C29.448 26.1952 29.6204 26.3718 29.9541 26.5226C29.9891 26.5228 30.0719 26.5425 30.1379 26.5663C30.3186 26.6313 30.6472 26.6239 30.8409 26.5503C31.0815 26.4587 31.3145 26.2921 31.4589 26.108C31.5948 25.9351 31.6109 25.9063 31.7105 25.6607L31.7739 25.5045L31.7662 20.3792L31.7584 15.2539L31.6415 15.0203C31.4135 14.5644 30.9904 14.2676 30.5116 14.2274C30.3455 14.2135 30.2672 14.2246 30.0531 14.2929C29.9111 14.3381 29.7793 14.3939 29.7602 14.4169C29.7411 14.4398 29.7098 14.4587 29.6906 14.4587C29.6301 14.4587 29.3538 14.7674 29.2744 14.9238C29.0958 15.2754 29.1027 15.1356 29.1027 18.4132C29.1027 20.1675 29.0914 21.4241 29.0755 21.4339C29.0508 21.4491 28.9962 21.3813 28.6666 20.9255C28.6069 20.8431 28.4476 20.6254 28.3127 20.4421C28.1778 20.2589 28.0133 20.0319 27.9473 19.9378C27.8813 19.8437 27.7666 19.6866 27.6923 19.5888C27.618 19.4911 27.4859 19.313 27.3987 19.1931C27.3114 19.073 27.1264 18.8196 26.9877 18.6299C26.8489 18.4401 26.6838 18.2134 26.6211 18.1261C26.5583 18.0388 26.4529 17.8967 26.3869 17.8102C26.3209 17.7237 26.2533 17.6309 26.2368 17.6042C26.2204 17.5774 26.0651 17.3638 25.8917 17.1294C25.7184 16.8951 25.5631 16.682 25.5466 16.6556C25.5302 16.6293 25.4423 16.5099 25.3516 16.3906C25.042 15.9834 24.9765 15.8951 24.9315 15.8252C24.9067 15.7866 24.7447 15.5637 24.5714 15.3297C24.398 15.0956 24.2378 14.8696 24.2151 14.8272C24.1479 14.7019 23.8161 14.3876 23.6709 14.3118C23.4723 14.2082 23.0502 14.1562 22.8112 14.2059C22.374 14.2968 21.9627 14.7168 21.8396 15.1977C21.782 15.4227 21.7806 15.5541 21.7809 20.4126C21.7813 25.2332 21.7832 25.4045 21.8392 25.6325C21.871 25.7622 21.9165 25.8905 21.9403 25.9176C21.9641 25.9447 21.9926 25.9964 22.0035 26.0322C22.036 26.1394 22.3986 26.455 22.5991 26.5505C22.7724 26.6333 22.8111 26.6397 23.1368 26.6409L23.4878 26.6421L23.7173 26.5233ZM19.0307 26.563C19.4542 26.4281 19.7476 26.181 19.9285 25.8067L20.0251 25.6068V20.3704V15.1339L19.9575 15.0075C19.9204 14.9381 19.89 14.8632 19.89 14.8414C19.89 14.7761 19.5111 14.3808 19.3727 14.3017C19.3025 14.2615 19.1602 14.1976 19.0569 14.1597C18.637 14.0062 18.0851 14.1586 17.7474 14.5215C17.5638 14.7189 17.4471 14.9451 17.402 15.1914C17.3793 15.3145 17.3693 16.8913 17.3693 20.3378C17.3693 25.7005 17.3655 25.5621 17.5272 25.8769C17.6063 26.031 17.949 26.4021 18.0122 26.4021C18.0317 26.4021 18.0643 26.4189 18.085 26.4395C18.154 26.5085 18.4929 26.6035 18.6856 26.6078C18.7919 26.6102 18.945 26.5903 19.0307 26.563ZM39.9207 26.5633C40.345 26.4242 40.6572 26.1636 40.8206 25.8119C40.8937 25.6546 40.9021 25.6019 40.9037 25.2918C40.9052 24.974 40.8986 24.9324 40.821 24.7666C40.7745 24.6676 40.6975 24.5366 40.6499 24.4755C40.548 24.3449 40.2003 24.0615 40.1415 24.0612C40.1191 24.0612 40.0603 24.0375 40.0107 24.0087C39.9285 23.9609 39.7559 23.9551 38.0055 23.9414L36.0903 23.9264L36.0923 22.8337C36.0934 22.2328 36.0992 21.7362 36.1051 21.7303C36.111 21.7243 36.9517 21.7164 37.9733 21.7127C39.9464 21.7053 39.8839 21.7093 40.2208 21.5665C40.6553 21.3824 40.9908 20.8624 40.9924 20.3704C40.9941 19.8831 40.6688 19.3664 40.2358 19.168C40.1945 19.1491 40.1135 19.1114 40.0558 19.0843C39.9628 19.0406 39.7285 19.0333 38.0205 19.02L36.0903 19.005L36.0923 17.9123C36.0934 17.3114 36.1 16.814 36.1069 16.8072C36.1137 16.8003 36.8869 16.7954 37.825 16.7964C39.4851 16.798 39.7779 16.7863 39.9957 16.7091C40.3663 16.5779 40.6472 16.3327 40.8032 16.0041C40.8983 15.804 40.903 15.7777 40.903 15.449C40.903 15.1404 40.8948 15.0865 40.8254 14.9388C40.7419 14.7611 40.5657 14.5329 40.4269 14.4223C40.2667 14.2946 40.1484 14.2186 40.1095 14.2185C40.0882 14.2184 40.0303 14.1947 39.9807 14.1659C39.8968 14.1172 39.7012 14.1136 37.1299 14.1136C34.5587 14.1136 34.363 14.1172 34.2791 14.1659C34.2295 14.1947 34.1706 14.2184 34.1479 14.2185C34.0802 14.2187 33.7372 14.4785 33.6365 14.6055C33.5851 14.6704 33.5061 14.8023 33.4608 14.8987L33.3789 15.0739V20.3554V25.6368L33.4464 25.7511C33.4835 25.8139 33.5139 25.882 33.5139 25.9024C33.5139 25.9805 33.8988 26.3574 34.0586 26.4358C34.4211 26.6136 34.2609 26.6046 37.1299 26.6086C39.5022 26.6121 39.7859 26.6074 39.9207 26.5633Z" fill="#D7FF3C"/>
</svg>
