<svg width="48" height="34" viewBox="0 0 48 34" fill="none" xmlns="http://www.w3.org/2000/svg">
<path d="M47.5219 7.28438C47.5219 7.28438 47.0531 3.975 45.6094 2.52188C43.7812 0.609375 41.7375 0.6 40.8 0.4875C34.0875 -2.68221e-07 24.0094 0 24.0094 0H23.9906C23.9906 0 13.9125 -2.68221e-07 7.2 0.4875C6.2625 0.6 4.21875 0.609375 2.39062 2.52188C0.946875 3.975 0.4875 7.28438 0.4875 7.28438C0.4875 7.28438 0 11.175 0 15.0563V18.6937C0 22.575 0.478125 26.4656 0.478125 26.4656C0.478125 26.4656 0.946875 29.775 2.38125 31.2281C4.20937 33.1406 6.60938 33.075 7.67813 33.2812C11.5219 33.6469 24 33.7594 24 33.7594C24 33.7594 34.0875 33.7406 40.8 33.2625C41.7375 33.15 43.7812 33.1406 45.6094 31.2281C47.0531 29.775 47.5219 26.4656 47.5219 26.4656C47.5219 26.4656 48 22.5844 48 18.6937V15.0563C48 11.175 47.5219 7.28438 47.5219 7.28438ZM19.0406 23.1094V9.61875L32.0062 16.3875L19.0406 23.1094Z" fill="#D7FF3C"/>
</svg>
